<svg width="50" height="80" viewBox="0 0 50 80" fill="none" xmlns="http://www.w3.org/2000/svg">
<path opacity="0.2" d="M35.4688 43.5935C39.7374 41.267 43.1093 37.5848 45.0522 33.1284C46.995 28.6721 47.3981 23.6955 46.1976 18.9846C44.9972 14.2737 42.2616 10.0969 38.423 7.11375C34.5844 4.13065 29.8615 2.51123 25 2.51123C20.1385 2.51123 15.4156 4.13065 11.577 7.11375C7.73839 10.0969 5.00288 14.2737 3.80242 18.9846C2.60197 23.6955 3.00499 28.6721 4.94784 33.1284C6.89069 37.5848 10.2627 41.267 14.5313 43.5935L3.75001 68.7498C3.33574 69.699 3.16384 70.7362 3.24975 71.7683C3.33567 72.8004 3.6767 73.795 4.24221 74.6626C4.80772 75.5302 5.57997 76.2437 6.48954 76.739C7.39911 77.2342 8.41749 77.4956 9.45313 77.4998H40.5469C41.5825 77.4956 42.6009 77.2342 43.5105 76.739C44.4201 76.2437 45.1923 75.5302 45.7578 74.6626C46.3233 73.795 46.6644 72.8004 46.7503 71.7683C46.8362 70.7362 46.6643 69.699 46.25 68.7498L35.4688 43.5935Z" fill="#40DDB6"/>
<path d="M35.4688 43.5935C39.7374 41.267 43.1093 37.5848 45.0522 33.1284C46.995 28.6721 47.3981 23.6955 46.1976 18.9846C44.9971 14.2737 42.2616 10.0969 38.423 7.11375C34.5844 4.13065 29.8615 2.51123 25 2.51123C20.1385 2.51123 15.4156 4.13065 11.577 7.11375C7.73839 10.0969 5.00288 14.2737 3.80242 18.9846C2.60197 23.6955 3.00499 28.6721 4.94784 33.1284C6.89069 37.5848 10.2627 41.267 14.5313 43.5935L3.75001 68.7498C3.33574 69.699 3.16384 70.7362 3.24975 71.7683C3.33567 72.8004 3.6767 73.795 4.24221 74.6626C4.80772 75.5302 5.57997 76.2437 6.48954 76.739C7.39911 77.2342 8.41749 77.4956 9.45313 77.4998H40.5469C41.5825 77.4956 42.6009 77.2342 43.5105 76.739C44.4201 76.2437 45.1923 75.5302 45.7578 74.6626C46.3233 73.795 46.6644 72.8004 46.7503 71.7683C46.8362 70.7362 46.6643 69.699 46.25 68.7498L35.4688 43.5935Z" stroke="#40DDB6" stroke-width="5" stroke-linecap="round" stroke-linejoin="round"/>
</svg>
