<svg width="44" height="44" viewBox="0 0 44 44" fill="none" xmlns="http://www.w3.org/2000/svg">
<path d="M26.2227 5.875V15.2812H35.6289" stroke="#6B77E5" stroke-width="2" stroke-linecap="round" stroke-linejoin="round"/>
<path d="M25.5508 22L29.582 26.0312L25.5508 30.0625" stroke="#6B77E5" stroke-width="2" stroke-linecap="round" stroke-linejoin="round"/>
<path d="M18.832 22L14.8008 26.0312L18.832 30.0625" stroke="#6B77E5" stroke-width="2" stroke-linecap="round" stroke-linejoin="round"/>
<path d="M34.2852 38.125C34.6415 38.125 34.9833 37.9834 35.2353 37.7314C35.4873 37.4794 35.6289 37.1376 35.6289 36.7812V15.2812L26.2227 5.875H10.0977C9.74127 5.875 9.39948 6.01657 9.14748 6.26858C8.89548 6.52058 8.75391 6.86237 8.75391 7.21875V36.7812C8.75391 37.1376 8.89548 37.4794 9.14748 37.7314C9.39948 37.9834 9.74127 38.125 10.0977 38.125H34.2852Z" stroke="#6B77E5" stroke-width="2" stroke-linecap="round" stroke-linejoin="round"/>
</svg>
