<svg width="44" height="45" viewBox="0 0 44 45" fill="none" xmlns="http://www.w3.org/2000/svg">
<path d="M41.2788 21.4405L37.0576 23.5425L31.5889 13.0835L35.8613 10.9473C36.1788 10.7855 36.5475 10.7557 36.8868 10.8646C37.2262 10.9734 37.5087 11.212 37.6729 11.5284L41.877 19.5777C41.9622 19.7388 42.0144 19.9154 42.0304 20.0969C42.0464 20.2785 42.0259 20.4615 41.9702 20.6351C41.9145 20.8086 41.8246 20.9693 41.7059 21.1076C41.5871 21.2459 41.4419 21.3591 41.2788 21.4405V21.4405Z" stroke="white" stroke-width="2" stroke-linecap="round" stroke-linejoin="round"/>
<path d="M6.97908 23.3714L2.75789 21.2523C2.59536 21.1726 2.4505 21.0611 2.33193 20.9244C2.21337 20.7876 2.12351 20.6284 2.06771 20.4562C2.01191 20.284 1.9913 20.1024 2.00711 19.922C2.02292 19.7417 2.07483 19.5664 2.15974 19.4066L6.36385 11.3573C6.5283 11.0412 6.80968 10.8018 7.14804 10.69C7.4864 10.5783 7.85502 10.6031 8.17537 10.7591L12.4478 12.8954L6.97908 23.3714Z" stroke="white" stroke-width="2" stroke-linecap="round" stroke-linejoin="round"/>
<path d="M37.0576 23.5425L34.3232 26.7554L28.0342 33.0444C27.8628 33.2047 27.6551 33.3211 27.4289 33.3836C27.2027 33.4461 26.9647 33.4529 26.7354 33.4033L16.8232 30.9253C16.6422 30.8748 16.4735 30.7876 16.3276 30.6689L6.97949 23.3716" stroke="white" stroke-width="2" stroke-linecap="round" stroke-linejoin="round"/>
<path d="M34.3238 26.7554L26.8043 21.2866L24.6168 22.9273C23.6691 23.6346 22.5181 24.0168 21.3356 24.0168C20.153 24.0168 19.002 23.6346 18.0543 22.9273L17.1315 22.2266C16.9754 22.1079 16.8463 21.9575 16.7528 21.7852C16.6592 21.613 16.6033 21.4228 16.5888 21.2273C16.5742 21.0318 16.6014 20.8354 16.6684 20.6512C16.7355 20.467 16.8409 20.2991 16.9776 20.1587L23.6769 13.4766C23.8027 13.3513 23.952 13.2522 24.1162 13.1847C24.2805 13.1173 24.4564 13.0829 24.6339 13.0835H31.5895" stroke="white" stroke-width="2" stroke-linecap="round" stroke-linejoin="round"/>
<path d="M12.5508 12.8955L21.3179 10.332C21.6294 10.2427 21.9625 10.2669 22.2578 10.4004L28.1709 13.0835" stroke="white" stroke-width="2" stroke-linecap="round" stroke-linejoin="round"/>
<path d="M19.2842 37.0093L14.1401 35.7104C13.9305 35.6631 13.7364 35.5631 13.5762 35.4199L9.71387 32.0703" stroke="white" stroke-width="2" stroke-linecap="round" stroke-linejoin="round"/>
</svg>
