<svg width="44" height="44" viewBox="0 0 44 44" fill="none" xmlns="http://www.w3.org/2000/svg">
<path d="M21.5381 30.7344C25.2487 30.7344 28.2568 27.7263 28.2568 24.0156C28.2568 20.305 25.2487 17.2969 21.5381 17.2969C17.8274 17.2969 14.8193 20.305 14.8193 24.0156C14.8193 27.7263 17.8274 30.7344 21.5381 30.7344Z" stroke="#6B77E5" stroke-width="2" stroke-linecap="round" stroke-linejoin="round"/>
<path d="M32.96 19.9844C34.525 19.9818 36.069 20.3449 37.4688 21.0448C38.8686 21.7447 40.0855 22.762 41.0225 24.0156" stroke="#6B77E5" stroke-width="2" stroke-linecap="round" stroke-linejoin="round"/>
<path d="M2.05371 24.0156C2.99064 22.762 4.20754 21.7447 5.60736 21.0448C7.00717 20.3449 8.55117 19.9818 10.1162 19.9844" stroke="#6B77E5" stroke-width="2" stroke-linecap="round" stroke-linejoin="round"/>
<path d="M11.8633 36.7813C12.7482 34.9691 14.1243 33.4418 15.8348 32.3735C17.5453 31.3052 19.5215 30.7388 21.5383 30.7388C23.555 30.7388 25.5312 31.3052 27.2418 32.3735C28.9523 33.4418 30.3284 34.9691 31.2133 36.7813" stroke="#6B77E5" stroke-width="2" stroke-linecap="round" stroke-linejoin="round"/>
<path d="M10.1158 19.9844C9.09564 19.9854 8.09624 19.6961 7.23438 19.1502C6.37253 18.6044 5.68382 17.8245 5.24872 16.9018C4.81362 15.9791 4.65011 14.9515 4.77728 13.9393C4.90446 12.9271 5.31707 11.972 5.9669 11.1856C6.61674 10.3991 7.47696 9.8139 8.44706 9.49821C9.41715 9.18251 10.4571 9.14941 11.4453 9.40278C12.4335 9.65615 13.3292 10.1855 14.0277 10.929C14.7262 11.6725 15.1987 12.5995 15.39 13.6016" stroke="#6B77E5" stroke-width="2" stroke-linecap="round" stroke-linejoin="round"/>
<path d="M27.6855 13.6016C27.8768 12.5995 28.3493 11.6725 29.0479 10.929C29.7464 10.1855 30.6421 9.65615 31.6303 9.40278C32.6185 9.14941 33.6584 9.18251 34.6285 9.49821C35.5986 9.8139 36.4588 10.3991 37.1087 11.1856C37.7585 11.972 38.1711 12.9271 38.2983 13.9393C38.4255 14.9515 38.2619 15.9791 37.8268 16.9018C37.3918 17.8245 36.703 18.6044 35.8412 19.1502C34.9793 19.6961 33.9799 19.9854 32.9598 19.9844" stroke="#6B77E5" stroke-width="2" stroke-linecap="round" stroke-linejoin="round"/>
</svg>
