<svg width="44" height="43" viewBox="0 0 44 43" fill="none" xmlns="http://www.w3.org/2000/svg">
<path d="M36.4541 12.0938H6.8916C6.14947 12.0938 5.54785 12.6954 5.54785 13.4375V34.9375C5.54785 35.6796 6.14947 36.2812 6.8916 36.2812H36.4541C37.1962 36.2812 37.7979 35.6796 37.7979 34.9375V13.4375C37.7979 12.6954 37.1962 12.0938 36.4541 12.0938Z" stroke="#6B77E5" stroke-width="2" stroke-linecap="round" stroke-linejoin="round"/>
<path d="M28.3916 36.2812V9.40625C28.3916 8.69348 28.1085 8.0099 27.6045 7.5059C27.1004 7.0019 26.4169 6.71875 25.7041 6.71875H17.6416C16.9288 6.71875 16.2453 7.0019 15.7413 7.5059C15.2372 8.0099 14.9541 8.69348 14.9541 9.40625V36.2812" stroke="#6B77E5" stroke-width="2" stroke-linecap="round" stroke-linejoin="round"/>
</svg>
